HIERARCHY
ROOT reference
{
  OFFSET 0 0 0
  CHANNELS 6 Xposition Yposition Zposition Zrotation Xrotation Yrotation
  JOINT Hips
  {
    OFFSET 8.35532 92.7254 82.8447
    CHANNELS 6 Xposition Yposition Zposition Zrotation Xrotation Yrotation
    JOINT Spine
    {
      OFFSET 0 7.86299 0
      CHANNELS 6 Xposition Yposition Zposition Zrotation Xrotation Yrotation
      JOINT Spine1
      {
        OFFSET 0 22.6654 0
        CHANNELS 6 Xposition Yposition Zposition Zrotation Xrotation Yrotation
        JOINT Neck
        {
          OFFSET 0 22.5723 2.05203
          CHANNELS 6 Xposition Yposition Zposition Zrotation Xrotation Yrotation
          JOINT Head
          {
            OFFSET 0 13.4246 -1.9178
            CHANNELS 6 Xposition Yposition Zposition Zrotation Xrotation Yrotation
            End Site
            {
              OFFSET 0 23.9725 0
            }
          }
        }
        JOINT LeftShoulder
        {
          OFFSET 3.7941 20.1358 -0.319195
          CHANNELS 6 Xposition Yposition Zposition Zrotation Xrotation Yrotation
          JOINT LeftArm
          {
            OFFSET 12.7665 0 0
            CHANNELS 6 Xposition Yposition Zposition Zrotation Xrotation Yrotation
            JOINT LeftForeArm
            {
              OFFSET 28.396 0 0
              CHANNELS 6 Xposition Yposition Zposition Zrotation Xrotation Yrotation
              JOINT LeftHand
              {
                OFFSET 28.7929 0 0
                CHANNELS 6 Xposition Yposition Zposition Zrotation Xrotation Yrotation
                End Site
                {
                  OFFSET 14.3835 0 0
                }
              }
            }
          }
        }
        JOINT RightShoulder
        {
          OFFSET -3.85764 20.1358 -0.319195
          CHANNELS 6 Xposition Yposition Zposition Zrotation Xrotation Yrotation
          JOINT RightArm
          {
            OFFSET -12.7665 0 0
            CHANNELS 6 Xposition Yposition Zposition Zrotation Xrotation Yrotation
            JOINT RightForeArm
            {
              OFFSET -28.396 0 0
              CHANNELS 6 Xposition Yposition Zposition Zrotation Xrotation Yrotation
              JOINT RightHand
              {
                OFFSET -28.7929 0 0
                CHANNELS 6 Xposition Yposition Zposition Zrotation Xrotation Yrotation
                End Site
                {
                  OFFSET -14.3835 0 0
                }
              }
            }
          }
        }
      }
    }
    JOINT LeftUpLeg
    {
      OFFSET 9.58901 0 0
      CHANNELS 6 Xposition Yposition Zposition Zrotation Xrotation Yrotation
      JOINT LeftLeg
      {
        OFFSET 0 -41.7092 0
        CHANNELS 6 Xposition Yposition Zposition Zrotation Xrotation Yrotation
        JOINT LeftFoot
        {
          OFFSET 0 -41.5308 0
          CHANNELS 6 Xposition Yposition Zposition Zrotation Xrotation Yrotation
          JOINT LeftToeBase
          {
            OFFSET 0 -6.23286 14.3835
            CHANNELS 6 Xposition Yposition Zposition Zrotation Xrotation Yrotation
            End Site
            {
              OFFSET 0 0 3.8356
            }
          }
        }
      }
    }
    JOINT RightUpLeg
    {
      OFFSET -9.58901 0 0
      CHANNELS 6 Xposition Yposition Zposition Zrotation Xrotation Yrotation
      JOINT RightLeg
      {
        OFFSET 0 -41.7092 0
        CHANNELS 6 Xposition Yposition Zposition Zrotation Xrotation Yrotation
        JOINT RightFoot
        {
          OFFSET 0 -41.5308 0
          CHANNELS 6 Xposition Yposition Zposition Zrotation Xrotation Yrotation
          JOINT RightToeBase
          {
            OFFSET 0 -6.23286 14.3835
            CHANNELS 6 Xposition Yposition Zposition Zrotation Xrotation Yrotation
            End Site
            {
              OFFSET 0 0 3.8356
            }
          }
        }
      }
    }
  }
}
MOTION
Frames:	8
Frame Time:	0.004
0 0 0 0 0 -0 -6.48949 85.9286 -206.44 0.170614 -0.377322 4.31716 -1.77636e-015 7.86299 2.84217e-014 0.694803 -9.53691 0.094685 -3.55271e-015 22.6654 0 0.600245 2.72837 0.0236228 1.77636e-015 22.5723 2.05203 -0.498018 20.0541 -1.80889 -8.88178e-016 13.4246 -1.9178 1.99486 3.72488 -1.67822 3.7941 20.1358 -0.319195 9.06699 4.18402 0.450389 12.7665 -2.84217e-014 0 -9.98397 7.53872 -6.94343 28.396 0 0 -0.111797 3.69131 -0.616076 28.7929 -2.84217e-014 2.84217e-014 12.4688 3.31021 -3.48836 -3.85764 20.1358 -0.319195 -9.69325 5.70948 9.5804 -12.7665 0 2.84217e-014 9.18975 3.90735 1.40924 -28.396 1.42109e-014 0 -0.709095 -0.423905 1.2259 -28.7929 -1.42109e-014 0 -4.45833 -0.47308 1.46498 9.58901 0 2.84217e-014 1.49102 4.33025 -2.78187 0 -41.7092 -2.84217e-014 -3.5172 -1.18805 -5.85779 0 -41.5308 0 2.43119 -5.30127 23.1592 0 -6.23286 14.3835 1.98785e-016 0 -6.36111e-015 -9.58901 0 0 -3.30138 0.734102 3.86355 0 -41.7092 0 3.72298 4.34488 1.24029 0 -41.5308 0 0.3885 -7.39359 -13.8233 0 -6.23286 14.3835 2.73329e-016 7.95139e-016 -0 
0 0 0 0 0 -0 -6.48949 85.9286 -206.44 0.170614 -0.377322 4.31716 -1.77636e-015 7.86299 2.84217e-014 0.694788 -9.52748 0.0946824 0 22.6654 0 0.600243 2.73338 0.0236229 -3.55271e-015 22.5723 2.05203 -0.50871 20.032 -1.80863 8.88178e-016 13.4246 -1.9178 2.00631 3.75228 -1.67827 3.7941 20.1358 -0.319195 9.06697 4.18672 0.45039 12.7665 0 0 -9.98643 7.51866 -6.94311 28.396 -4.26326e-014 0 -0.11192 3.67993 -0.616068 28.7929 1.42109e-014 0 12.4732 3.29769 -3.49746 -3.85764 20.1358 -0.319195 -9.69325 5.70948 9.5804 -12.7665 -5.68434e-014 0 9.18975 3.90735 1.40924 -28.396 0 0 -0.709095 -0.423905 1.2259 -28.7929 0 0 -4.44215 -0.47308 1.46498 9.58901 0 2.84217e-014 1.49128 4.33024 -2.78535 0 -41.7092 2.84217e-014 -3.51813 -1.19713 -5.85781 0 -41.5308 2.84217e-014 2.42789 -5.28817 23.18 0 -6.23286 14.3835 9.93923e-017 3.97569e-016 -3.18055e-015 -9.58901 0 0 -3.30229 0.747591 3.86356 3.55271e-015 -41.7092 -2.84217e-014 3.72111 4.33318 1.26839 3.55271e-015 -41.5308 0 0.392796 -7.39258 -13.8555 7.10543e-015 -6.23286 14.3835 -1.98785e-016 7.95139e-016 1.59028e-015 
0 0 0 0 0 -0 -6.48949 85.9286 -206.44 0.170614 -0.377322 4.31716 -1.77636e-015 7.86299 2.84217e-014 0.704664 -9.51536 0.094679 1.77636e-015 22.6654 0 0.600249 2.71936 0.0236226 0 22.5723 2.05203 -0.508138 20.0399 -1.80872 -8.88178e-016 13.4246 -1.9178 2.00721 3.74797 -1.67826 3.7941 20.1358 -0.319195 9.06176 4.19732 0.450397 12.7665 2.84217e-014 0 -9.9858 7.52383 -6.94319 28.396 0 2.84217e-014 -0.112061 3.66683 -0.616059 28.7929 -1.42109e-014 0 12.4912 3.28464 -3.49193 -3.85764 20.1358 -0.319195 -9.69325 5.70948 9.5804 -12.7665 0 -2.84217e-014 9.18982 3.9045 1.40923 -28.396 1.42109e-014 2.84217e-014 -0.708978 -0.429368 1.2259 -28.7929 -1.42109e-014 0 -4.45719 -0.478412 1.45524 9.58901 0 2.84217e-014 1.49219 4.33019 -2.79733 0 -41.7092 0 -3.51924 -1.20859 -5.85444 -1.77636e-015 -41.5308 -2.84217e-014 2.44258 -5.28837 23.178 -1.42109e-014 -6.23286 14.3835 1.98785e-016 -3.97569e-016 -0 -9.58901 0 0 -3.30244 0.749902 3.86356 0 -41.7092 0 3.72251 4.33405 1.2496 3.55271e-015 -41.5308 0 0.416955 -7.39285 -13.8253 0 -6.23286 14.3835 2.73329e-016 3.97569e-016 1.59028e-015 
0 0 0 0 0 -0 -6.48949 85.9286 -206.44 0.170614 -0.377322 4.31716 -1.77636e-015 7.86299 2.84217e-014 0.702633 -9.51757 0.0946796 1.77636e-015 22.6654 0 0.600248 2.72291 0.0236227 -1.77636e-015 22.5723 2.05203 -0.497847 20.0275 -1.80858 0 13.4246 -1.9178 2.00894 3.76008 -1.67828 3.7941 20.1358 -0.319195 9.06056 4.19285 0.450394 12.7665 2.84217e-014 2.84217e-014 -9.98565 7.52506 -6.94321 28.396 -1.42109e-014 2.84217e-014 -0.112225 3.65168 -0.616048 28.7929 -1.42109e-014 0 12.4961 3.27069 -3.47934 -3.85764 20.1358 -0.319195 -9.6932 5.70949 9.57987 -12.7665 -2.84217e-014 2.84217e-014 9.18944 3.92 1.40926 -28.396 1.42109e-014 0 -0.708898 -0.433149 1.2259 -28.7929 -2.84217e-014 -2.84217e-014 -4.45525 -0.482372 1.4598 9.58901 0 2.84217e-014 1.49186 4.32391 -2.79708 0 -41.7092 0 -3.51975 -1.20996 -5.87175 0 -41.5308 0 2.41672 -5.28628 23.2123 0 -6.23286 14.3835 9.93923e-017 3.97569e-016 3.18055e-015 -9.58901 0 0 -3.30192 0.739741 3.87642 0 -41.7092 0 3.71931 4.34641 1.28828 7.10543e-015 -41.5308 0 0.417711 -7.4042 -13.8687 0 -6.23286 14.3835 -1.49089e-016 -3.97569e-016 -0 
0 0 0 0 0 -0 -6.48949 85.9286 -206.443 0.170614 -0.377322 4.31716 -1.77636e-015 7.86299 0 0.704088 -9.51543 0.094679 0 22.6654 -2.84217e-014 0.600249 2.71954 0.0236226 0 22.5723 2.05203 -0.515582 20.0341 -1.80865 8.88178e-016 13.4246 -1.9178 2.01014 3.74895 -1.67826 3.7941 20.1358 -0.319195 9.0597 4.19505 0.450395 12.7665 -2.84217e-014 0 -9.98675 7.51609 -6.94307 28.396 -1.42109e-014 0 -0.112195 3.65439 -0.61605 28.7929 -1.42109e-014 0 12.4933 3.27362 -3.47779 -3.85764 20.1358 -0.319195 -9.69313 5.7095 9.57918 -12.7665 -2.84217e-014 0 9.19308 3.9158 1.40925 -28.396 -1.42109e-014 0 -0.708533 -0.439643 1.22591 -28.7929 1.42109e-014 0 -4.47542 -0.488493 1.4447 9.58901 0 0 1.49161 4.31873 -2.797 1.77636e-015 -41.7092 2.84217e-014 -3.51978 -1.21078 -5.86913 0 -41.5308 2.84217e-014 2.45286 -5.28581 23.2035 0 -6.23286 14.3835 -9.93923e-017 3.97569e-016 -0 -9.58901 0 -2.84217e-014 -3.30185 0.739364 3.87287 3.55271e-015 -41.7092 0 3.71976 4.33886 1.28455 3.55271e-015 -41.5308 -2.84217e-014 0.411153 -7.38999 -13.8771 0 -6.23286 14.3835 9.93923e-017 7.95139e-016 2.38542e-015 
0 0 0 0 0 -0 -6.48949 85.9287 -206.445 0.170614 -0.377322 4.31716 0 7.86299 0 0.706081 -9.51234 0.0946782 0 22.6654 2.84217e-014 0.600251 2.7149 0.0236226 -1.77636e-015 22.5723 2.05203 -0.506031 20.0208 -1.8085 -8.88178e-016 13.4246 -1.9178 2.01189 3.76586 -1.67829 3.7941 20.1358 -0.319195 9.05904 4.19822 0.450397 12.7665 0 0 -9.98677 7.51237 -6.94629 28.396 1.42109e-014 0 -0.121643 3.66363 -0.616057 28.7929 1.42109e-014 -2.84217e-014 12.484 3.28245 -3.47722 -3.85764 20.1358 -0.319195 -9.69307 5.70951 9.57857 -12.7665 0 0 9.19724 3.91639 1.40925 -28.396 1.42109e-014 -2.84217e-014 -0.724984 -0.421607 1.2259 -28.7929 0 0 -4.3127 -0.470446 1.49723 9.58901 0 0 1.49165 4.31962 -2.79697 0 -41.7092 2.84217e-014 -3.51984 -1.21104 -5.87088 0 -41.5308 -2.84217e-014 2.44031 -5.28489 23.2047 -1.42109e-014 -6.23286 14.3835 -9.93923e-017 -3.97569e-016 6.36111e-015 -9.58901 0 0 -3.3021 0.736456 3.86197 -3.55271e-015 -41.7092 2.84217e-014 3.72059 4.3403 1.27325 -7.10543e-015 -41.5308 0 0.398177 -7.39135 -13.834 0 -6.23286 14.3835 -2.23633e-016 -3.97569e-016 -7.95139e-016 
0 0 0 0 0 -0 -6.48752 85.9288 -206.448 0.170614 -0.377322 4.31716 -1.77636e-015 7.86299 0 0.708172 -9.50884 0.0946772 1.77636e-015 22.6654 2.84217e-014 0.598569 2.71054 0.0236225 0 22.5723 2.05203 -0.507745 20.0209 -1.8085 0 13.4246 -1.9178 2.0124 3.76438 -1.67829 3.7941 20.1358 -0.319195 9.0584 4.20055 0.450398 12.7665 0 2.84217e-014 -9.98692 7.50306 -6.95364 28.396 -1.42109e-014 0 -0.118154 3.67379 -0.616064 28.7929 1.42109e-014 -2.84217e-014 12.4938 3.29184 -3.47742 -3.85764 20.1358 -0.319195 -9.69197 5.70319 9.57819 -12.7665 0 -2.84217e-014 9.20093 3.91784 1.40925 -28.396 -1.42109e-014 0 -0.709283 -0.435888 1.2259 -28.7929 -1.42109e-014 0 -4.46114 -0.485496 1.46888 9.58901 0 0 1.49164 4.3195 -2.79696 0 -41.7092 -2.84217e-014 -3.51938 -1.21087 -5.85009 1.77636e-015 -41.5308 0 2.45592 -5.28472 23.1865 1.42109e-014 -6.23286 14.3835 -0 0 3.18055e-015 -9.58901 0 -2.84217e-014 -3.30267 0.733859 3.87187 0 -41.7092 2.84217e-014 3.72104 4.33961 1.26743 -3.55271e-015 -41.5308 0 0.392112 -7.38571 -13.8445 0 -6.23286 14.3835 5.46658e-016 0 1.59028e-015 
0 0 0 0 0 -0 -6.4866 85.9289 -206.45 0.170598 -0.377323 4.3148 0 7.86299 0 0.70992 -9.50272 0.0946755 0 22.6654 0 0.590617 2.70813 0.0236224 0 22.5723 2.05203 -0.50175 20.0193 -1.80848 0 13.4246 -1.9178 2.0079 3.76043 -1.67828 3.7941 20.1358 -0.319195 9.0576 4.20294 0.4504 12.7665 0 0 -9.98385 7.51936 -6.9619 28.396 -1.42109e-014 0 -0.111059 3.6809 -0.616068 28.7929 2.84217e-014 0 12.4632 3.30047 -3.47821 -3.85764 20.1358 -0.319195 -9.69257 5.70654 9.57857 -12.7665 -5.68434e-014 0 9.20202 3.91906 1.40926 -28.396 -2.84217e-014 0 -0.704882 -0.442643 1.22591 -28.7929 0 -2.84217e-014 -4.48087 -0.492404 1.46277 9.58901 0 0 1.49161 4.31899 -2.79696 0 -41.7092 2.84217e-014 -3.51926 -1.21022 -5.84748 1.77636e-015 -41.5308 0 2.44772 -5.28354 23.1937 1.42109e-014 -6.23286 14.3835 4.96962e-016 0 3.18055e-015 -9.58901 1.42109e-014 0 -3.30315 0.733519 3.86337 -3.55271e-015 -41.7092 0 3.7214 4.33882 1.26298 -7.10543e-015 -41.5308 0 0.412555 -7.37494 -13.8395 0 -6.23286 14.3835 9.93923e-017 -7.95139e-016 -1.59028e-015 
